<svg width="25" height="25" viewBox="0 0 25 25" fill="none" xmlns="http://www.w3.org/2000/svg">
<path d="M12.4805 0C5.56641 0 0 5.56641 0 12.4805C0 19.3945 5.56641 24.9609 12.4805 24.9609C19.3945 24.9609 24.9609 19.3945 24.9609 12.4805C24.9609 5.56641 19.3945 0 12.4805 0ZM13.7109 21.2109H11.25V18.75H13.7109V21.2109ZM16.2891 11.543L15.1758 12.7148C14.5898 13.3594 14.1211 13.8867 13.8867 14.8242C13.7695 15.2344 13.7109 15.6445 13.7109 16.2305H11.25V15.5859C11.25 15.0586 11.3086 14.4727 11.4844 13.9453C11.7773 13.2422 12.1875 12.5977 12.7148 12.0703L14.2383 10.4883C14.8242 9.96094 15.1172 9.14062 14.9414 8.26172C14.7656 7.32422 14.0625 6.5625 13.1836 6.32812C11.7773 5.91797 10.5469 6.73828 10.0781 7.91016C9.96094 8.37891 9.55078 8.73047 9.08203 8.73047H8.73047C7.96875 8.73047 7.5 8.02734 7.67578 7.32422C8.20312 5.50781 9.78516 4.10156 11.7188 3.80859C13.5938 3.51562 15.4102 4.45312 16.582 6.03516C18.0469 8.08594 17.5781 10.2539 16.2891 11.543Z" fill="#94A3B8"/>
</svg>
