<svg width="26" height="23" viewBox="0 0 26 23" fill="none" xmlns="http://www.w3.org/2000/svg">
<path d="M14.4315 0.00441343C8.04476 -0.171368 2.82992 4.92629 2.82992 11.2544H0.603357C0.0760129 11.2544 -0.216956 11.9575 0.1932 12.3091L3.65023 15.8247C3.88461 16.0591 4.29476 16.0591 4.52914 15.8247L8.04476 12.3091C8.39633 11.9575 8.16195 11.2544 7.57601 11.2544H5.34945C5.34945 6.39113 9.33383 2.46535 14.1971 2.52394C18.8846 2.58254 22.8104 6.50832 22.869 11.1372C22.9276 16.0005 19.0018 19.9849 14.0799 19.9849C12.0877 19.9849 10.2127 19.3404 8.74789 18.1685C8.22054 17.7583 7.57601 17.8169 7.10726 18.2271C6.57992 18.7544 6.63851 19.6919 7.22445 20.1021C9.09945 21.6255 11.5018 22.5044 14.0799 22.5044C20.408 22.5044 25.5057 17.2896 25.3299 10.9029C25.2127 5.04348 20.2909 0.180195 14.4315 0.00441343ZM13.787 6.27394C13.2596 6.27394 12.8495 6.6841 12.8495 7.21144V11.7818C12.8495 12.2505 13.0838 12.6607 13.4354 12.895L17.3612 15.1802C17.8299 15.4146 18.4159 15.2974 18.6502 14.8286C18.8846 14.4185 18.7674 13.8325 18.2987 13.5396L14.7245 11.4302V7.15285C14.7245 6.6841 14.3143 6.27394 13.787 6.27394Z" fill="#94A3B8"/>
</svg>
